<svg id="svg" version="1.1" xmlns="http://www.w3.org/2000/svg" xmlns:xlink="http://www.w3.org/1999/xlink" width="400" height="453.125" viewBox="0, 0, 400,453.125"><g id="svgg"><path id="path0" d="M158.000 0.800 C 158.000 1.510,157.733 1.600,155.633 1.600 C 152.533 1.600,152.070 1.818,151.770 3.417 C 151.546 4.614,151.364 4.769,150.060 4.878 C 149.114 4.957,148.581 5.211,148.546 5.600 C 148.517 5.930,148.472 6.605,148.446 7.100 C 148.408 7.849,148.170 8.000,147.032 8.000 C 145.813 8.000,145.633 8.142,145.382 9.300 C 145.064 10.766,144.603 11.185,143.300 11.194 C 142.482 11.199,142.399 11.392,142.395 13.300 C 142.386 16.643,142.123 17.200,140.553 17.200 L 139.200 17.200 139.200 20.375 L 139.200 23.549 137.900 23.675 C 137.122 23.750,136.640 24.001,136.700 24.300 C 136.755 24.575,136.620 24.800,136.400 24.800 C 136.142 24.800,136.000 28.994,136.000 36.582 L 136.000 48.364 134.643 48.618 C 133.143 48.900,132.800 49.720,132.800 53.026 C 132.800 54.731,132.782 54.753,131.300 54.876 C 129.767 55.003,129.784 54.978,129.643 57.300 C 129.611 57.820,129.253 58.000,128.252 58.000 L 126.903 58.000 126.619 60.890 C 126.351 63.606,126.390 63.824,127.267 64.535 C 128.603 65.617,128.654 71.162,127.345 73.000 C 124.571 76.896,124.338 98.737,127.013 104.200 C 127.552 105.300,128.341 107.345,128.768 108.744 C 129.195 110.144,129.903 111.674,130.342 112.144 C 130.781 112.615,131.521 113.972,131.987 115.159 C 132.454 116.347,133.187 117.766,133.617 118.313 C 134.593 119.553,134.592 120.172,133.609 124.620 C 132.561 129.359,132.442 141.971,133.423 144.313 C 133.928 145.519,135.163 152.451,135.193 154.245 C 135.197 154.490,135.725 155.351,136.367 156.159 C 137.009 156.966,137.662 158.380,137.817 159.301 C 138.086 160.894,139.528 163.661,140.355 164.172 C 140.567 164.304,140.960 165.084,141.227 165.906 C 141.494 166.728,142.272 168.071,142.956 168.891 C 145.629 172.095,146.638 173.374,147.600 174.773 C 148.671 176.331,151.791 179.297,153.872 180.735 C 154.572 181.219,156.173 182.619,157.430 183.846 C 158.687 185.074,160.479 186.405,161.411 186.805 C 162.344 187.205,163.359 187.892,163.668 188.333 C 163.977 188.774,165.301 189.609,166.611 190.188 C 167.920 190.767,169.354 191.568,169.796 191.968 C 170.238 192.369,171.950 193.015,173.600 193.404 C 175.250 193.794,177.320 194.516,178.200 195.010 C 182.853 197.622,216.964 197.592,222.149 194.972 C 223.221 194.430,225.341 193.705,226.859 193.359 C 228.423 193.004,230.105 192.324,230.737 191.792 C 231.351 191.275,232.651 190.544,233.627 190.167 C 234.602 189.790,235.940 188.988,236.600 188.384 C 237.260 187.780,238.552 186.910,239.472 186.449 C 240.391 185.989,242.076 184.665,243.216 183.506 C 244.356 182.348,245.690 181.130,246.181 180.800 C 248.260 179.403,251.675 176.106,252.891 174.322 C 253.611 173.266,254.337 172.401,254.504 172.401 C 254.671 172.400,255.350 171.517,256.014 170.439 C 256.678 169.360,257.470 168.382,257.774 168.265 C 258.079 168.148,258.616 167.063,258.967 165.853 C 259.319 164.643,260.073 163.099,260.643 162.422 C 261.212 161.746,261.947 160.164,262.275 158.908 C 262.603 157.652,263.190 156.169,263.580 155.612 C 264.904 153.722,265.247 151.922,266.211 141.800 C 266.337 140.480,266.737 138.458,267.100 137.307 C 267.732 135.305,267.724 135.053,266.903 131.507 C 264.948 123.063,264.967 118.936,266.974 116.035 C 267.520 115.246,268.242 113.819,268.579 112.864 C 268.915 111.908,269.635 110.598,270.179 109.952 C 270.723 109.305,271.274 108.107,271.403 107.288 C 271.533 106.470,272.305 103.730,273.119 101.200 L 274.600 96.600 274.567 86.800 C 274.533 76.449,274.569 76.694,272.498 73.000 C 271.238 70.752,271.301 65.839,272.606 64.630 C 273.639 63.672,273.678 63.502,273.377 61.310 C 273.201 60.040,273.045 58.820,273.028 58.600 C 273.000 58.223,272.780 58.159,271.124 58.046 C 270.642 58.013,270.413 57.569,270.324 56.500 C 270.207 55.081,270.119 54.993,268.700 54.876 L 267.200 54.752 267.160 52.676 C 267.113 50.217,266.753 48.750,266.200 48.759 C 265.980 48.762,265.395 48.663,264.900 48.539 L 264.000 48.313 264.000 36.730 C 264.000 24.211,263.907 23.600,262.003 23.600 L 260.834 23.600 260.717 20.500 L 260.600 17.400 259.349 17.278 C 258.074 17.154,257.844 16.497,257.434 11.809 C 257.415 11.593,256.878 11.377,256.239 11.328 C 254.800 11.217,254.429 10.861,254.315 9.482 C 254.266 8.887,254.085 8.377,253.913 8.350 C 253.741 8.322,253.420 8.255,253.200 8.200 C 252.980 8.145,252.541 8.078,252.224 8.050 C 251.859 8.018,251.603 7.451,251.524 6.500 C 251.407 5.084,251.317 4.993,249.914 4.877 C 248.571 4.765,248.403 4.620,248.170 3.380 C 248.028 2.625,247.752 2.106,247.556 2.227 C 247.360 2.348,247.200 2.257,247.200 2.024 C 247.200 1.769,246.163 1.600,244.600 1.600 C 242.267 1.600,242.000 1.518,242.000 0.800 C 242.000 0.011,241.733 0.000,221.800 0.000 C 201.867 0.000,201.600 0.011,201.600 0.800 C 201.600 1.467,201.333 1.600,200.000 1.600 C 198.667 1.600,198.400 1.467,198.400 0.800 C 198.400 0.011,198.133 0.000,178.200 0.000 C 158.267 0.000,158.000 0.011,158.000 0.800 M174.400 342.691 C 173.252 342.900,172.000 343.899,172.000 344.606 C 172.000 344.871,167.050 350.047,161.000 356.110 C 154.950 362.172,150.000 367.397,150.000 367.720 C 150.000 368.043,149.578 368.585,149.061 368.923 C 148.420 369.343,147.906 370.341,147.439 372.069 C 147.063 373.461,146.405 375.443,145.977 376.474 C 144.915 379.035,144.979 382.655,146.167 387.256 C 146.699 389.315,147.329 392.068,147.567 393.374 C 147.818 394.751,148.353 396.125,148.841 396.643 C 149.303 397.135,150.106 398.455,150.625 399.576 C 151.145 400.696,151.843 401.718,152.177 401.846 C 152.511 401.975,153.165 402.697,153.631 403.451 C 154.109 404.224,155.117 405.089,155.940 405.432 C 156.743 405.768,157.864 406.486,158.430 407.029 C 161.062 409.550,180.689 409.676,183.400 407.189 C 183.840 406.786,185.396 406.022,186.859 405.492 C 189.997 404.356,191.024 403.619,195.213 399.500 C 199.274 395.507,200.670 395.295,203.584 398.229 C 208.247 402.924,209.443 403.836,213.300 405.643 C 214.785 406.338,216.000 407.034,216.000 407.189 C 216.000 408.208,218.601 408.565,227.142 408.718 C 237.525 408.904,239.201 408.733,240.707 407.333 C 241.308 406.774,242.649 405.886,243.686 405.359 C 244.723 404.832,245.759 404.050,245.988 403.622 C 246.218 403.193,247.118 402.019,247.990 401.012 C 248.861 400.005,249.769 398.456,250.008 397.570 C 250.247 396.684,250.694 395.862,251.002 395.744 C 254.045 394.576,254.174 371.192,251.147 369.572 C 250.724 369.345,250.098 368.463,249.757 367.610 C 249.411 366.745,247.960 364.931,246.469 363.500 C 245.001 362.091,242.707 359.782,241.372 358.369 C 240.036 356.956,237.966 354.869,236.772 353.731 C 232.527 349.686,228.631 345.462,228.020 344.242 C 227.214 342.634,225.531 342.343,220.200 342.893 C 214.373 343.494,187.569 343.756,184.400 343.243 C 181.291 342.740,175.795 342.436,174.400 342.691 " stroke="none" fill="#cf4b0c" fill-rule="evenodd"></path><path id="path1" d="M120.683 64.251 C 120.527 64.406,120.400 65.133,120.400 65.867 L 120.400 67.200 117.300 67.244 C 115.595 67.269,113.795 67.256,113.300 67.216 C 112.805 67.176,112.400 67.336,112.400 67.571 C 112.400 67.807,112.197 67.955,111.950 67.900 C 111.702 67.845,111.409 68.050,111.298 68.357 C 111.149 68.767,111.362 68.862,112.111 68.719 C 112.809 68.586,113.068 68.679,112.938 69.018 C 112.834 69.290,112.400 69.420,111.974 69.309 C 111.444 69.171,111.200 69.311,111.200 69.753 C 111.200 70.285,110.718 70.400,108.480 70.400 C 105.472 70.400,104.800 70.780,104.800 72.480 C 104.800 73.520,104.686 73.600,103.200 73.600 C 101.638 73.600,101.600 73.633,101.600 75.000 L 101.600 76.400 98.880 76.400 C 95.879 76.400,95.200 76.780,95.200 78.462 C 95.200 79.554,95.170 79.566,92.300 79.682 C 89.524 79.795,89.397 79.843,89.339 80.800 C 89.306 81.350,89.261 82.025,89.239 82.300 C 89.215 82.610,88.592 82.800,87.600 82.800 L 86.000 82.800 86.000 84.400 L 86.000 86.000 83.005 86.000 L 80.009 86.000 79.754 87.600 C 79.514 89.100,79.413 89.200,78.149 89.200 C 77.019 89.200,76.799 89.346,76.794 90.100 C 76.785 91.425,76.340 91.912,74.999 92.064 C 73.931 92.185,73.786 92.364,73.676 93.700 L 73.552 95.200 71.376 95.200 C 69.573 95.200,69.199 95.320,69.194 95.900 C 69.189 96.454,69.115 96.485,68.839 96.049 C 68.647 95.746,68.286 95.623,68.038 95.776 C 67.790 95.930,67.691 96.223,67.817 96.428 C 67.944 96.632,67.857 96.800,67.624 96.800 C 67.391 96.800,67.200 97.160,67.200 97.600 C 67.200 98.133,66.933 98.400,66.400 98.400 C 65.960 98.400,65.600 98.580,65.600 98.800 C 65.600 99.020,65.397 99.155,65.150 99.100 C 64.902 99.045,64.617 99.225,64.517 99.500 C 64.416 99.775,64.528 100.000,64.767 100.000 C 65.005 100.000,64.840 100.360,64.400 100.800 C 63.960 101.240,63.076 101.600,62.435 101.600 C 61.388 101.600,61.243 101.762,61.000 103.200 C 60.746 104.701,60.645 104.800,59.365 104.800 C 58.073 104.800,58.000 104.875,58.000 106.192 C 58.000 107.386,57.843 107.619,56.900 107.826 C 54.942 108.255,54.800 108.360,54.800 109.387 C 54.800 109.944,54.440 110.760,54.000 111.200 C 53.560 111.640,53.200 111.805,53.200 111.567 C 53.200 111.328,52.975 111.216,52.700 111.317 C 52.425 111.418,52.245 111.703,52.300 111.950 C 52.355 112.198,52.220 112.400,52.000 112.400 C 51.780 112.400,51.600 112.760,51.600 113.200 C 51.600 113.675,51.333 114.000,50.944 114.000 C 50.583 114.000,50.030 114.315,49.714 114.700 C 49.399 115.085,49.255 115.175,49.394 114.900 C 49.533 114.625,49.457 114.400,49.224 114.400 C 48.630 114.400,48.693 115.490,49.300 115.735 C 49.599 115.856,49.518 115.950,49.100 115.968 C 48.715 115.986,48.400 116.270,48.400 116.600 C 48.400 116.959,48.031 117.200,47.480 117.200 C 45.923 117.200,44.979 118.579,46.300 118.924 C 46.894 119.080,46.901 119.114,46.347 119.154 C 45.650 119.203,45.214 120.319,45.205 122.075 C 45.201 122.993,45.011 123.168,43.900 123.275 C 42.751 123.385,42.577 123.563,42.400 124.800 C 42.222 126.044,42.044 126.222,40.800 126.400 C 39.513 126.584,39.390 126.721,39.276 128.100 C 39.208 128.925,38.938 129.618,38.676 129.639 C 38.414 129.661,37.750 129.706,37.200 129.739 C 36.434 129.786,36.186 130.034,36.139 130.800 C 36.106 131.350,36.061 132.025,36.039 132.300 C 36.018 132.575,35.595 132.803,35.100 132.806 C 33.509 132.817,33.125 133.393,32.908 136.091 C 32.700 138.683,32.699 138.683,31.250 139.042 C 29.940 139.365,29.788 139.544,29.676 140.900 C 29.608 141.725,29.338 142.419,29.076 142.443 C 28.814 142.466,28.240 142.511,27.800 142.543 C 27.152 142.589,27.000 142.886,27.000 144.100 C 27.000 144.925,26.865 145.600,26.700 145.600 C 26.535 145.600,26.400 146.230,26.400 147.000 C 26.400 148.333,26.333 148.400,25.000 148.400 L 23.600 148.400 23.600 151.365 L 23.600 154.330 22.000 154.600 C 20.452 154.862,20.400 154.921,20.400 156.435 C 20.400 157.610,20.239 158.000,19.753 158.000 C 19.304 158.000,19.170 158.244,19.316 158.800 C 19.583 159.822,19.040 160.156,18.008 159.604 C 17.239 159.193,17.200 159.288,17.200 161.586 C 17.200 163.557,17.080 164.000,16.544 164.000 C 16.183 164.000,15.630 164.315,15.314 164.700 C 14.999 165.085,14.855 165.175,14.994 164.900 C 15.133 164.625,15.057 164.400,14.824 164.400 C 14.220 164.400,14.296 165.597,14.900 165.612 C 15.177 165.619,15.088 165.806,14.700 166.032 C 14.121 166.369,14.000 167.023,14.000 169.820 L 14.000 173.200 12.880 173.200 C 11.183 173.200,10.800 173.873,10.800 176.855 L 10.800 179.549 9.500 179.675 L 8.200 179.800 8.087 184.263 L 7.974 188.727 6.487 189.078 L 5.000 189.429 4.890 195.515 L 4.779 201.600 3.190 201.600 L 1.600 201.600 1.600 207.800 C 1.600 213.733,1.566 214.000,0.800 214.000 C 0.005 214.000,0.000 214.267,0.000 253.000 C 0.000 291.562,0.009 292.000,0.790 292.000 C 1.536 292.000,1.585 292.331,1.690 298.100 L 1.800 304.200 3.300 304.324 L 4.800 304.448 4.860 309.524 C 4.893 312.316,4.882 315.095,4.835 315.700 C 4.754 316.734,4.847 316.800,6.374 316.800 L 8.000 316.800 8.057 320.500 C 8.088 322.535,8.097 324.596,8.078 325.080 C 8.042 325.968,9.223 326.680,9.969 326.219 C 10.606 325.826,10.949 326.868,10.843 328.872 C 10.689 331.766,11.010 332.400,12.627 332.400 C 14.086 332.400,14.288 333.113,14.013 337.292 C 13.895 339.085,14.377 340.099,15.238 339.874 C 15.657 339.765,16.100 339.838,16.223 340.038 C 16.346 340.237,15.987 340.400,15.424 340.400 C 14.434 340.400,14.119 340.786,14.663 341.330 C 14.808 341.475,15.203 341.370,15.540 341.097 C 16.044 340.689,16.092 340.701,15.811 341.168 C 15.552 341.597,15.636 341.672,16.155 341.473 C 16.533 341.328,16.741 341.372,16.618 341.570 C 16.495 341.769,16.574 341.992,16.794 342.066 C 17.013 342.140,17.218 343.325,17.248 344.700 C 17.299 346.953,17.388 347.203,18.152 347.228 C 18.982 347.256,18.983 347.264,18.200 347.621 C 17.559 347.913,17.679 347.968,18.800 347.893 L 20.200 347.800 20.318 350.500 C 20.383 351.985,20.619 353.200,20.842 353.200 C 21.065 353.200,21.136 353.380,21.000 353.600 C 20.864 353.820,21.018 354.000,21.343 354.000 C 21.668 354.000,22.024 353.775,22.135 353.500 C 22.256 353.201,22.350 353.282,22.368 353.700 C 22.386 354.085,22.670 354.400,23.000 354.400 C 23.433 354.400,23.600 354.844,23.600 356.000 C 23.600 357.549,23.643 357.600,24.944 357.600 C 26.329 357.600,26.617 358.372,26.885 362.800 C 26.931 363.564,27.563 363.986,28.675 363.994 C 29.367 363.999,29.575 364.270,29.675 365.300 C 29.789 366.487,29.931 366.611,31.300 366.724 L 32.800 366.848 32.800 369.048 C 32.800 370.410,32.952 371.153,33.199 371.000 C 33.428 370.859,33.556 371.130,33.499 371.633 C 33.445 372.116,33.631 372.594,33.913 372.693 C 34.194 372.793,34.374 372.656,34.313 372.388 C 34.251 372.119,34.411 371.822,34.669 371.727 C 34.969 371.616,35.060 371.849,34.922 372.377 C 34.770 372.957,34.898 373.200,35.353 373.200 C 35.983 373.200,36.172 373.637,36.021 374.740 C 35.973 375.087,36.135 375.167,36.473 374.963 C 36.903 374.705,36.907 374.762,36.490 375.277 C 35.906 375.997,36.523 376.400,38.209 376.400 C 39.010 376.400,39.170 376.626,39.276 377.900 C 39.384 379.205,39.535 379.405,40.440 379.440 C 42.135 379.504,42.400 379.905,42.400 382.410 C 42.400 384.918,42.908 385.600,44.774 385.600 C 45.421 385.600,45.600 385.854,45.600 386.776 C 45.600 387.423,45.780 388.064,46.000 388.200 C 46.220 388.336,46.400 388.257,46.400 388.024 C 46.400 387.791,46.580 387.600,46.800 387.600 C 47.020 387.600,47.200 387.870,47.200 388.200 C 47.200 388.530,47.470 388.800,47.800 388.800 C 48.198 388.800,48.400 389.198,48.400 389.986 C 48.400 391.174,49.606 392.291,50.376 391.815 C 50.962 391.453,51.945 392.722,51.727 393.559 C 51.497 394.437,53.232 395.703,53.513 394.861 C 53.812 393.963,54.981 395.699,54.859 396.861 C 54.736 398.038,55.719 398.531,56.135 397.500 C 56.296 397.100,56.343 397.100,56.368 397.500 C 56.386 397.775,56.760 398.000,57.200 398.000 C 57.971 398.000,58.179 398.518,58.027 400.065 C 57.991 400.430,58.178 400.863,58.443 401.026 C 58.776 401.232,58.820 401.151,58.585 400.762 C 58.318 400.319,58.368 400.295,58.823 400.649 C 59.140 400.895,59.714 401.046,60.098 400.984 C 60.933 400.849,61.307 401.365,61.360 402.727 C 61.382 403.281,61.650 403.817,61.956 403.919 C 62.293 404.031,62.402 403.926,62.232 403.652 C 62.078 403.403,62.143 403.200,62.376 403.200 C 62.609 403.200,62.800 403.470,62.800 403.800 C 62.800 404.130,63.076 404.400,63.413 404.400 C 63.749 404.400,64.134 404.685,64.268 405.032 C 64.413 405.411,64.808 405.587,65.255 405.470 C 65.664 405.363,66.100 405.438,66.223 405.638 C 66.346 405.837,65.972 406.000,65.390 406.000 C 64.722 406.000,64.395 406.184,64.501 406.500 C 64.593 406.775,65.148 406.990,65.734 406.978 C 66.320 406.965,66.800 407.108,66.800 407.295 C 66.800 407.482,67.025 407.606,67.300 407.570 C 69.683 407.261,70.350 407.582,70.476 409.100 C 70.545 409.931,70.823 410.622,71.100 410.650 C 71.375 410.678,72.039 410.723,72.575 410.750 C 73.369 410.791,73.572 411.040,73.675 412.100 C 73.789 413.287,73.931 413.411,75.300 413.524 C 76.726 413.642,76.987 413.918,76.823 415.130 C 76.664 416.304,77.681 416.800,80.249 416.800 L 82.800 416.800 82.800 418.400 C 82.800 419.996,82.804 420.000,84.376 420.000 C 85.908 420.000,85.955 420.042,86.076 421.500 C 86.193 422.919,86.281 423.007,87.700 423.124 C 89.068 423.237,89.200 423.353,89.200 424.434 C 89.200 425.866,90.287 426.400,93.201 426.400 C 95.107 426.400,95.152 426.428,95.275 427.700 C 95.389 428.884,95.532 429.011,96.886 429.123 C 98.223 429.234,98.398 429.382,98.626 430.596 C 98.765 431.338,99.151 432.049,99.484 432.177 C 99.905 432.339,100.019 432.225,99.857 431.805 C 99.729 431.472,99.799 431.200,100.013 431.200 C 100.226 431.200,100.400 431.470,100.400 431.800 C 100.400 432.261,100.911 432.400,102.600 432.400 C 104.694 432.400,104.800 432.450,104.800 433.424 C 104.800 434.103,104.957 434.350,105.268 434.158 C 105.583 433.964,105.652 434.087,105.481 434.534 C 105.318 434.958,105.427 435.200,105.779 435.200 C 106.084 435.200,106.424 434.975,106.535 434.700 C 106.659 434.393,106.749 434.462,106.768 434.879 C 106.793 435.411,107.254 435.584,108.900 435.679 C 110.904 435.794,111.006 435.855,111.136 436.999 C 111.315 438.577,111.731 438.787,114.700 438.794 C 116.653 438.799,117.200 438.931,117.200 439.400 C 117.200 439.730,117.451 440.000,117.757 440.000 C 118.064 440.000,118.428 440.295,118.566 440.657 C 118.786 441.230,118.733 441.242,118.144 440.757 C 117.563 440.277,117.497 440.282,117.668 440.799 C 117.907 441.522,120.071 441.946,123.682 441.977 L 126.364 442.000 126.626 443.400 L 126.889 444.800 131.445 444.800 L 136.000 444.800 136.000 446.400 L 136.000 448.000 140.549 448.000 L 145.098 448.000 145.356 449.616 C 145.505 450.549,145.823 451.205,146.107 451.168 C 149.977 450.672,160.800 451.284,160.800 452.000 C 160.800 452.795,161.067 452.800,200.000 452.800 C 238.788 452.800,239.200 452.792,239.200 452.009 C 239.200 451.253,239.531 451.213,246.700 451.109 L 254.200 451.000 254.571 449.500 L 254.941 448.000 259.471 448.000 L 264.000 448.000 264.000 446.400 L 264.000 444.800 268.643 444.800 C 272.674 444.800,273.254 444.718,273.047 444.179 C 272.903 443.802,272.975 443.661,273.231 443.819 C 273.464 443.963,273.620 443.837,273.579 443.540 C 273.392 442.172,273.641 442.033,276.500 441.918 L 279.400 441.800 279.524 440.300 L 279.648 438.800 283.124 438.760 C 287.375 438.711,288.582 438.410,288.657 437.380 C 288.689 436.951,288.734 436.395,288.757 436.145 C 288.783 435.869,289.910 435.628,291.623 435.531 C 294.596 435.363,295.182 434.996,295.194 433.300 C 295.199 432.518,295.409 432.400,296.800 432.400 C 298.397 432.400,298.400 432.397,298.400 430.817 L 298.400 429.234 301.500 429.117 L 304.600 429.000 304.725 427.700 C 304.843 426.478,304.944 426.400,306.403 426.400 C 307.546 426.400,308.131 426.163,308.627 425.500 C 309.080 424.892,309.222 424.827,309.062 425.300 C 308.784 426.123,308.952 426.161,310.117 425.537 C 310.963 425.085,310.964 425.067,310.191 424.765 C 309.515 424.501,309.502 424.452,310.100 424.428 C 310.485 424.413,310.800 424.130,310.800 423.800 C 310.800 423.432,311.174 423.200,311.767 423.200 C 313.504 423.200,314.000 422.791,314.000 421.357 C 314.000 419.953,314.760 419.674,317.730 419.984 C 318.279 420.042,318.428 419.832,318.330 419.140 C 318.235 418.467,318.415 418.192,319.000 418.117 C 319.440 418.060,319.575 418.116,319.300 418.240 C 318.730 418.498,318.615 419.600,319.157 419.600 C 319.795 419.600,320.028 418.316,319.507 417.673 C 319.111 417.183,319.109 417.112,319.500 417.347 C 319.775 417.512,320.000 417.457,320.000 417.224 C 320.000 416.991,320.701 416.800,321.557 416.800 C 323.204 416.800,323.600 416.367,323.600 414.567 C 323.600 413.728,323.786 413.600,325.000 413.600 C 326.333 413.600,326.400 413.533,326.400 412.200 C 326.400 411.430,326.535 410.787,326.700 410.771 C 329.008 410.548,329.961 410.435,330.800 410.283 C 331.350 410.184,331.935 410.079,332.100 410.051 C 332.769 409.937,332.340 409.244,331.500 409.082 C 330.728 408.934,330.757 408.901,331.700 408.854 C 332.463 408.817,332.798 408.585,332.794 408.100 C 332.789 407.496,332.730 407.482,332.363 408.000 C 332.026 408.478,331.970 408.484,332.093 408.031 C 332.177 407.717,332.776 407.397,333.423 407.318 C 335.278 407.093,335.599 406.887,335.613 405.913 C 335.620 405.411,335.890 404.651,336.213 404.224 C 336.541 403.789,336.800 403.669,336.800 403.951 C 336.800 404.246,337.175 404.402,337.700 404.328 C 338.334 404.238,338.591 403.939,338.570 403.320 C 338.554 402.836,338.715 402.548,338.928 402.679 C 339.155 402.819,339.238 402.510,339.128 401.935 C 338.956 401.034,339.061 400.952,340.370 400.975 C 341.744 400.999,341.808 400.937,342.000 399.400 C 342.196 397.833,342.231 397.802,343.700 397.891 C 345.163 397.979,345.200 397.948,345.200 396.591 C 345.200 395.342,345.312 395.199,346.300 395.194 C 347.755 395.186,348.487 394.681,348.388 393.755 C 348.237 392.340,348.400 392.000,349.226 392.000 C 350.471 392.000,351.650 391.234,351.575 390.475 C 351.449 389.205,351.600 388.800,352.200 388.800 C 352.573 388.800,352.800 388.422,352.800 387.800 C 352.800 387.250,352.963 386.800,353.163 386.800 C 353.362 386.800,353.431 387.160,353.316 387.600 C 353.201 388.040,353.288 388.400,353.511 388.400 C 354.186 388.400,354.446 387.138,353.907 386.473 C 353.511 385.983,353.509 385.912,353.900 386.147 C 354.209 386.333,354.400 386.224,354.400 385.861 C 354.400 385.458,354.669 385.345,355.263 385.501 C 355.991 385.691,356.091 385.591,355.901 384.864 C 355.777 384.389,355.838 383.900,356.038 383.777 C 356.237 383.654,356.400 383.923,356.400 384.376 C 356.400 385.134,357.134 385.586,357.251 384.900 C 357.279 384.735,357.374 384.240,357.461 383.800 C 357.548 383.360,357.724 382.235,357.852 381.300 C 358.073 379.679,358.147 379.600,359.442 379.600 C 360.760 379.600,360.800 379.552,360.800 378.000 C 360.800 376.523,360.884 376.400,361.900 376.394 C 363.022 376.388,364.096 375.915,364.034 375.455 C 363.852 374.091,364.085 373.200,364.624 373.200 C 364.967 373.200,365.144 373.032,365.017 372.828 C 364.891 372.623,364.970 372.342,365.193 372.204 C 365.417 372.066,365.600 372.138,365.600 372.364 C 365.600 372.590,365.880 372.667,366.223 372.536 C 366.566 372.404,366.751 372.050,366.636 371.748 C 366.520 371.447,366.599 371.200,366.813 371.200 C 367.026 371.200,367.200 370.221,367.200 369.024 L 367.200 366.848 368.700 366.724 C 370.069 366.611,370.211 366.487,370.325 365.300 C 370.394 364.585,370.664 363.979,370.925 363.954 C 371.186 363.928,371.580 363.866,371.800 363.815 C 372.020 363.764,372.444 363.694,372.743 363.661 C 373.060 363.625,373.187 363.342,373.047 362.979 C 372.903 362.602,372.975 362.461,373.231 362.619 C 373.464 362.763,373.620 362.637,373.579 362.340 C 373.539 362.043,373.527 360.855,373.553 359.700 L 373.600 357.600 375.000 357.600 C 376.360 357.600,376.400 357.556,376.400 356.045 C 376.400 354.592,376.490 354.472,377.761 354.234 C 379.381 353.930,379.600 353.472,379.600 350.391 L 379.600 348.048 381.097 347.924 C 382.685 347.792,383.415 346.635,382.339 345.954 C 381.940 345.701,381.930 345.611,382.300 345.606 C 382.625 345.602,382.800 344.972,382.800 343.811 C 382.800 342.129,382.877 342.003,384.100 341.686 C 385.652 341.284,385.883 340.535,385.953 335.700 C 385.998 332.573,386.047 332.398,386.900 332.354 C 389.049 332.244,388.995 332.310,389.109 329.600 C 389.244 326.373,389.412 325.888,390.298 326.163 C 391.077 326.406,392.080 325.927,391.974 325.363 C 391.936 325.164,391.927 323.155,391.953 320.900 L 392.000 316.800 393.600 316.800 L 395.200 316.800 395.200 310.624 L 395.200 304.448 396.700 304.324 L 398.200 304.200 398.310 298.100 C 398.415 292.331,398.464 292.000,399.210 292.000 C 399.991 292.000,400.000 291.562,400.000 253.000 C 400.000 214.267,399.995 214.000,399.200 214.000 C 398.434 214.000,398.400 213.733,398.400 207.800 L 398.400 201.600 396.810 201.600 L 395.221 201.600 395.110 195.515 L 395.000 189.429 393.513 189.078 L 392.026 188.727 391.913 184.263 L 391.800 179.800 390.500 179.675 L 389.200 179.549 389.200 176.855 C 389.200 173.873,388.817 173.200,387.120 173.200 L 386.000 173.200 386.000 169.889 C 386.000 167.023,385.887 166.481,385.162 165.860 C 384.701 165.466,384.441 165.026,384.584 164.883 C 384.727 164.740,385.011 164.888,385.216 165.212 C 385.530 165.709,385.589 165.694,385.594 165.118 C 385.598 164.654,385.154 164.353,384.200 164.174 C 382.803 163.912,382.800 163.906,382.800 161.729 C 382.800 158.916,382.305 158.000,380.786 158.000 C 379.673 158.000,379.600 157.903,379.600 156.435 C 379.600 154.921,379.548 154.862,378.000 154.600 L 376.400 154.330 376.400 151.365 L 376.400 148.400 375.000 148.400 C 373.667 148.400,373.600 148.333,373.600 147.000 C 373.600 146.230,373.455 145.600,373.278 145.600 C 373.101 145.600,372.966 144.940,372.978 144.134 C 372.991 143.300,372.785 142.596,372.500 142.501 C 372.225 142.409,372.000 142.618,372.000 142.967 C 372.000 144.194,370.463 142.135,370.327 140.727 C 370.216 139.563,370.016 139.354,368.700 139.029 C 367.225 138.665,367.200 138.627,367.200 136.729 C 367.200 135.171,367.066 134.794,366.500 134.768 C 366.082 134.750,366.001 134.656,366.300 134.535 C 366.575 134.424,366.800 134.068,366.800 133.743 C 366.800 133.418,366.620 133.264,366.400 133.400 C 366.180 133.536,366.000 133.457,366.000 133.224 C 366.000 132.991,365.561 132.800,365.024 132.800 C 364.185 132.800,364.031 132.590,363.924 131.300 C 363.807 129.886,363.715 129.793,362.323 129.677 C 360.935 129.562,360.838 129.465,360.723 128.077 C 360.611 126.733,360.483 126.589,359.300 126.475 C 358.119 126.361,358.000 126.228,358.000 125.017 C 358.000 123.622,357.493 123.200,355.819 123.200 C 354.993 123.200,354.876 122.956,354.621 120.704 C 354.300 117.870,353.905 117.200,352.551 117.200 C 352.028 117.200,351.600 117.004,351.600 116.764 C 351.600 116.524,351.195 115.990,350.700 115.577 C 350.205 115.164,350.010 114.821,350.267 114.813 C 350.523 114.806,350.824 115.025,350.935 115.300 C 351.058 115.606,351.149 115.535,351.168 115.118 C 351.190 114.646,350.770 114.356,349.800 114.174 C 348.853 113.996,348.400 113.691,348.400 113.232 C 348.400 111.758,347.331 110.896,346.624 111.800 C 346.125 112.438,346.047 112.459,346.241 111.903 C 346.393 111.467,346.244 111.115,345.842 110.961 C 345.455 110.812,345.200 110.249,345.200 109.545 C 345.200 108.361,345.074 108.258,343.100 107.826 C 342.149 107.617,342.000 107.390,342.000 106.146 C 342.000 104.837,341.912 104.724,341.026 104.893 C 340.490 104.995,339.836 104.946,339.573 104.784 C 339.147 104.520,339.046 104.137,338.851 102.053 C 338.817 101.690,338.458 101.572,337.779 101.702 C 337.023 101.846,336.453 101.592,335.579 100.718 C 334.311 99.449,333.974 98.750,335.065 99.651 C 335.635 100.122,335.703 100.114,335.539 99.600 C 335.434 99.270,334.774 98.828,334.074 98.617 C 333.331 98.394,332.800 97.967,332.800 97.594 C 332.800 96.162,331.721 95.305,331.045 96.200 C 330.451 96.986,330.444 96.984,330.667 96.100 C 330.881 95.247,330.776 95.200,328.671 95.200 L 326.448 95.200 326.324 93.700 C 326.211 92.331,326.087 92.189,324.900 92.075 C 323.946 91.983,323.600 91.752,323.600 91.207 C 323.600 89.721,323.135 89.200,321.808 89.200 C 320.594 89.200,320.484 89.088,320.246 87.600 L 319.991 86.000 316.995 86.000 L 314.000 86.000 314.000 84.400 L 314.000 82.800 312.400 82.800 C 311.408 82.800,310.785 82.610,310.761 82.300 C 310.739 82.025,310.694 81.350,310.661 80.800 C 310.603 79.843,310.476 79.795,307.700 79.682 C 304.830 79.566,304.800 79.554,304.800 78.462 C 304.800 76.780,304.121 76.400,301.120 76.400 L 298.400 76.400 298.400 75.000 C 298.400 73.633,298.362 73.600,296.800 73.600 C 295.762 73.600,295.200 73.419,295.200 73.085 C 295.200 72.802,294.820 72.542,294.355 72.507 C 293.118 72.413,292.955 72.069,293.780 71.290 C 294.183 70.911,294.394 70.813,294.250 71.072 C 293.972 71.572,294.691 72.242,295.084 71.850 C 295.833 71.100,294.126 70.400,291.551 70.400 L 288.800 70.400 288.800 69.214 C 288.800 67.969,287.782 67.094,286.484 67.224 C 286.108 67.261,284.416 67.271,282.724 67.246 L 279.648 67.200 279.524 65.700 L 279.400 64.200 276.636 64.080 C 274.695 63.996,273.773 64.115,273.542 64.480 C 272.999 65.336,273.156 67.555,273.856 68.909 C 274.716 70.571,275.454 73.876,275.798 77.600 C 275.950 79.250,276.328 81.123,276.637 81.761 C 277.324 83.179,277.401 88.839,276.742 89.498 C 276.476 89.764,276.143 92.404,275.946 95.822 C 275.573 102.278,275.102 104.643,273.980 105.698 C 273.571 106.083,273.131 107.073,273.002 107.898 C 272.534 110.898,271.948 112.416,271.026 113.019 C 270.449 113.398,269.911 114.329,269.634 115.431 C 269.385 116.418,268.646 117.787,267.991 118.472 C 266.599 119.929,266.453 121.451,267.568 122.869 C 270.157 126.159,270.049 143.180,267.407 148.245 C 267.076 148.880,266.796 150.300,266.785 151.400 C 266.755 154.384,266.195 156.758,265.240 157.943 C 264.149 159.298,263.730 160.194,263.191 162.328 C 262.951 163.278,262.225 164.609,261.577 165.287 C 260.930 165.964,260.400 166.753,260.400 167.041 C 260.400 167.978,259.493 169.580,258.839 169.796 C 258.488 169.912,257.777 170.987,257.259 172.184 C 256.741 173.382,255.890 174.642,255.367 174.985 C 254.844 175.327,254.134 176.154,253.789 176.821 C 253.444 177.488,252.716 178.204,252.171 178.411 C 251.626 178.618,250.807 179.420,250.351 180.194 C 249.894 180.967,249.283 181.600,248.991 181.600 C 248.700 181.600,247.953 182.105,247.331 182.722 C 243.866 186.159,241.496 187.997,240.018 188.395 C 239.128 188.635,238.400 189.066,238.400 189.353 C 238.400 190.166,237.163 191.073,235.306 191.622 C 234.374 191.898,233.346 192.528,233.022 193.022 C 232.566 193.718,231.773 194.033,229.517 194.413 C 227.906 194.685,226.329 195.195,225.995 195.552 C 224.619 197.024,223.864 197.283,219.966 197.622 C 217.538 197.833,215.521 198.222,214.963 198.588 C 213.535 199.523,186.432 199.502,185.001 198.564 C 184.414 198.179,182.485 197.790,180.115 197.578 C 177.962 197.386,176.161 197.222,176.114 197.214 C 176.067 197.206,175.437 196.693,174.714 196.073 C 173.801 195.290,172.618 194.806,170.835 194.485 C 169.070 194.168,167.940 193.709,167.216 193.016 C 166.637 192.461,165.312 191.717,164.271 191.362 C 162.977 190.921,162.196 190.365,161.803 189.606 C 161.399 188.824,160.806 188.415,159.804 188.227 C 158.768 188.033,157.458 187.092,155.003 184.780 C 153.146 183.031,151.435 181.600,151.200 181.600 C 150.965 181.600,150.413 180.989,149.972 180.243 C 149.532 179.496,148.644 178.667,147.999 178.400 C 147.354 178.132,146.720 177.578,146.590 177.167 C 146.459 176.756,145.742 175.844,144.995 175.140 C 144.249 174.436,143.274 173.012,142.828 171.976 C 142.382 170.940,141.735 169.984,141.391 169.852 C 141.046 169.719,140.485 168.934,140.144 168.106 C 139.803 167.278,139.014 166.127,138.391 165.549 C 137.751 164.955,137.064 163.735,136.815 162.749 C 136.269 160.591,135.854 159.701,134.753 158.334 C 134.132 157.562,133.771 156.274,133.447 153.675 C 133.158 151.355,132.757 149.814,132.314 149.325 C 130.523 147.348,129.770 126.426,131.331 122.018 C 131.747 120.845,131.830 120.078,131.575 119.770 C 131.362 119.513,130.904 118.335,130.558 117.151 C 130.212 115.968,129.426 114.460,128.812 113.800 C 128.126 113.062,127.504 111.753,127.199 110.400 C 126.923 109.177,126.273 107.739,125.735 107.161 C 124.891 106.255,124.721 105.547,124.401 101.618 C 124.171 98.782,123.807 96.764,123.418 96.171 C 122.555 94.854,122.529 83.947,123.383 81.901 C 123.704 81.133,124.240 78.159,124.575 75.291 C 125.164 70.231,125.749 68.000,126.486 68.000 C 126.683 68.000,126.789 67.145,126.722 66.100 L 126.600 64.200 123.783 64.084 C 122.233 64.020,120.838 64.095,120.683 64.251 M17.828 158.355 C 17.707 158.550,17.877 158.932,18.204 159.204 C 18.700 159.615,18.800 159.555,18.800 158.849 C 18.800 157.991,18.232 157.702,17.828 158.355 M212.974 231.951 C 213.868 232.364,216.834 233.081,219.565 233.543 C 223.140 234.148,224.768 234.606,225.377 235.179 C 225.857 235.630,227.486 236.239,229.138 236.587 C 232.372 237.267,233.396 237.707,233.917 238.637 C 234.110 238.982,235.289 239.601,236.537 240.012 C 238.898 240.792,242.588 243.494,244.345 245.730 C 244.893 246.429,246.119 247.630,247.069 248.400 C 250.626 251.283,256.237 257.123,257.745 259.513 C 258.307 260.404,258.958 261.250,259.190 261.394 C 259.422 261.537,259.878 262.290,260.202 263.067 C 260.527 263.843,261.230 264.823,261.766 265.244 C 262.301 265.666,263.040 266.917,263.409 268.026 C 263.777 269.135,264.492 270.455,264.997 270.961 C 265.564 271.527,266.096 272.784,266.385 274.240 C 266.644 275.538,267.109 277.050,267.420 277.600 C 268.798 280.036,269.213 281.356,269.642 284.668 C 270.873 294.158,271.083 295.479,271.525 296.526 C 272.504 298.847,272.145 308.807,271.006 310.951 C 270.459 311.980,269.760 313.910,269.452 315.240 C 269.104 316.747,268.499 318.070,267.847 318.751 C 267.271 319.352,266.800 320.163,266.800 320.554 C 266.800 320.944,265.727 322.285,264.416 323.532 C 262.084 325.750,261.643 326.180,259.600 328.214 C 257.175 330.630,256.126 331.489,255.044 331.946 C 254.409 332.214,253.544 332.872,253.123 333.407 C 252.702 333.943,251.602 334.574,250.679 334.811 C 249.755 335.047,247.591 335.952,245.869 336.820 C 244.147 337.689,242.527 338.403,242.269 338.407 C 242.011 338.411,241.387 338.850,240.882 339.382 C 240.287 340.009,239.159 340.510,237.682 340.802 C 233.605 341.607,232.996 341.914,232.021 343.649 L 231.103 345.282 240.688 354.941 C 246.761 361.061,250.475 365.113,250.826 366.000 C 251.130 366.770,251.859 367.805,252.447 368.300 C 253.248 368.975,253.621 369.804,253.942 371.628 C 254.178 372.964,254.782 374.719,255.285 375.529 C 256.693 377.794,256.615 384.237,255.129 388.400 C 254.540 390.050,253.938 392.469,253.791 393.775 C 253.582 395.628,253.287 396.376,252.445 397.175 C 251.853 397.739,251.140 398.974,250.862 399.920 C 250.552 400.972,249.666 402.340,248.578 403.444 C 247.600 404.435,246.800 405.395,246.800 405.575 C 246.800 405.755,246.242 406.134,245.560 406.417 C 244.878 406.699,243.629 407.507,242.785 408.212 C 238.613 411.698,216.470 411.671,213.584 408.177 C 213.263 407.789,212.069 407.058,210.930 406.554 C 209.792 406.049,208.712 405.383,208.530 405.073 C 208.349 404.762,207.607 404.205,206.883 403.835 C 206.158 403.465,205.364 402.720,205.118 402.181 C 204.873 401.641,204.444 401.200,204.167 401.200 C 203.889 401.200,203.122 400.660,202.462 400.000 C 200.859 398.398,199.288 398.407,197.531 400.028 C 196.799 400.704,195.390 401.971,194.400 402.845 C 193.410 403.718,192.220 404.787,191.756 405.219 C 191.291 405.651,189.884 406.358,188.628 406.791 C 187.371 407.223,185.803 408.032,185.141 408.588 C 184.480 409.145,183.727 409.601,183.469 409.602 C 183.211 409.604,181.216 409.874,179.035 410.202 C 169.338 411.664,159.493 410.642,156.406 407.853 C 155.521 407.054,154.587 406.400,154.330 406.400 C 153.602 406.400,150.273 402.761,149.556 401.181 C 149.201 400.400,148.448 399.261,147.881 398.649 C 147.210 397.926,146.627 396.557,146.213 394.736 C 145.862 393.195,145.207 391.436,144.756 390.826 C 142.678 388.016,142.710 375.970,144.804 373.117 C 145.241 372.522,145.968 371.046,146.420 369.838 C 146.905 368.543,147.546 367.544,147.981 367.406 C 148.388 367.277,148.837 366.708,148.979 366.142 C 149.134 365.524,153.144 361.238,159.019 355.410 C 164.398 350.073,168.800 345.439,168.800 345.112 C 168.800 342.929,166.268 341.269,161.912 340.598 C 161.093 340.471,159.895 339.923,159.248 339.379 C 158.602 338.835,157.320 338.125,156.400 337.800 C 155.480 337.475,154.190 336.758,153.533 336.205 C 152.876 335.652,152.037 335.196,151.669 335.191 C 150.656 335.178,147.669 333.729,146.329 332.601 C 145.674 332.051,144.875 331.600,144.552 331.600 C 143.862 331.600,139.841 327.718,139.476 326.700 C 139.338 326.315,138.946 326.000,138.604 326.000 C 137.589 326.000,133.718 321.848,133.405 320.425 C 133.251 319.721,132.867 319.047,132.551 318.926 C 131.717 318.606,131.171 317.398,130.576 314.552 C 130.286 313.167,129.633 311.471,129.124 310.784 C 127.741 308.915,127.491 298.967,128.764 296.471 C 129.347 295.327,129.601 294.071,129.605 292.316 C 129.607 290.932,129.875 288.810,130.200 287.600 C 130.525 286.390,130.801 284.590,130.813 283.600 C 130.837 281.621,131.602 279.121,132.503 278.074 C 132.822 277.703,133.316 276.267,133.600 274.881 C 133.912 273.362,134.539 271.832,135.180 271.025 C 135.765 270.289,136.484 268.958,136.778 268.067 C 137.072 267.177,137.917 265.806,138.656 265.023 C 139.395 264.239,140.000 263.363,140.000 263.074 C 140.000 262.786,140.322 262.202,140.717 261.775 C 141.111 261.349,142.016 260.149,142.729 259.110 C 144.378 256.705,150.561 250.445,152.407 249.313 C 153.181 248.838,154.261 247.972,154.807 247.387 C 155.353 246.802,156.303 246.062,156.917 245.743 C 157.532 245.423,158.205 244.712,158.415 244.161 C 158.628 243.601,159.390 242.913,160.149 242.596 C 160.894 242.284,161.599 241.781,161.715 241.476 C 161.832 241.171,162.956 240.505,164.212 239.995 C 165.468 239.486,166.887 238.676,167.366 238.197 C 167.883 237.681,169.452 237.029,171.219 236.598 C 172.858 236.197,174.650 235.541,175.200 235.140 C 175.805 234.699,178.097 234.090,181.000 233.599 C 183.640 233.153,186.340 232.542,187.000 232.242 C 187.660 231.942,188.470 231.600,188.800 231.480 C 190.655 230.809,211.376 231.213,212.974 231.951 M98.400 235.450 C 99.390 235.917,101.190 236.527,102.400 236.805 C 105.532 237.526,111.499 242.759,113.570 246.600 C 114.044 247.480,114.858 248.787,115.379 249.504 C 115.917 250.245,116.449 251.714,116.611 252.904 C 116.767 254.057,117.234 255.668,117.648 256.484 C 118.250 257.671,118.400 258.854,118.400 262.400 C 118.400 265.946,118.250 267.129,117.648 268.316 C 117.234 269.132,116.761 270.786,116.597 271.992 C 116.360 273.742,116.037 274.428,114.999 275.392 C 114.284 276.056,113.581 276.984,113.437 277.454 C 113.293 277.923,112.146 279.225,110.888 280.347 C 109.630 281.469,108.150 282.813,107.600 283.334 C 107.050 283.855,105.880 284.669,105.000 285.143 C 104.120 285.616,102.950 286.363,102.400 286.803 C 98.693 289.769,79.749 289.339,77.490 286.239 C 77.074 285.667,76.503 285.200,76.221 285.200 C 75.770 285.200,71.213 282.061,69.600 280.639 C 68.397 279.578,65.831 275.750,65.016 273.800 C 64.556 272.700,63.824 271.268,63.390 270.618 C 62.159 268.775,62.195 255.816,63.436 254.134 C 63.895 253.510,64.668 251.806,65.153 250.346 C 65.638 248.887,66.406 247.357,66.860 246.946 C 67.314 246.536,68.010 245.564,68.406 244.787 C 68.803 244.010,69.591 243.126,70.157 242.823 C 70.723 242.520,71.292 241.939,71.422 241.532 C 71.551 241.124,72.229 240.502,72.928 240.150 C 73.628 239.797,74.607 239.003,75.105 238.385 C 75.803 237.518,76.667 237.112,78.894 236.606 C 80.480 236.245,82.009 235.758,82.292 235.524 C 83.990 234.114,95.456 234.061,98.400 235.450 M316.600 235.048 C 318.407 235.741,321.261 236.613,322.896 236.973 C 323.499 237.105,324.563 237.840,325.261 238.607 C 325.958 239.373,326.725 240.004,326.964 240.009 C 328.336 240.039,334.527 248.094,335.185 250.704 C 335.437 251.708,335.984 252.962,336.399 253.489 C 338.314 255.924,338.431 263.870,336.610 267.875 C 336.091 269.016,335.461 270.940,335.210 272.151 C 334.959 273.361,334.428 274.767,334.031 275.276 C 333.633 275.784,332.834 277.138,332.255 278.284 C 331.486 279.807,330.582 280.800,328.901 281.968 C 327.636 282.847,326.150 283.931,325.600 284.375 C 325.050 284.819,324.406 285.186,324.170 285.191 C 323.933 285.196,323.311 285.656,322.788 286.213 C 319.551 289.659,300.678 289.644,296.954 286.192 C 296.365 285.647,295.645 285.200,295.355 285.200 C 294.336 285.200,286.800 278.284,286.800 277.349 C 286.800 277.075,286.171 276.254,285.403 275.525 C 284.287 274.467,283.918 273.717,283.569 271.800 C 283.328 270.480,282.742 268.680,282.266 267.800 C 280.984 265.432,280.964 255.861,282.236 254.134 C 282.696 253.510,283.399 252.010,283.798 250.800 C 284.534 248.570,285.783 246.919,290.218 242.312 C 293.962 238.423,295.458 237.262,297.092 236.973 C 297.921 236.827,299.680 236.296,301.000 235.794 C 302.320 235.291,303.670 234.787,304.000 234.672 C 305.468 234.161,315.032 234.447,316.600 235.048 " stroke="none" fill="#f6f6f6" fill-rule="evenodd"></path><path id="path2" d="M128.077 68.240 C 128.023 69.964,127.706 71.233,127.000 72.562 C 126.450 73.596,126.001 74.658,126.002 74.921 C 126.005 75.365,126.426 74.690,127.874 71.919 C 128.243 71.213,128.390 69.966,128.297 68.319 L 128.154 65.800 128.077 68.240 M271.767 69.800 C 271.900 71.790,272.155 72.529,273.627 75.200 C 274.785 77.300,274.557 75.884,273.356 73.514 C 272.782 72.381,272.160 70.632,271.973 69.627 L 271.634 67.800 271.767 69.800 M274.509 79.200 C 274.509 80.190,274.587 80.595,274.682 80.100 C 274.778 79.605,274.778 78.795,274.682 78.300 C 274.587 77.805,274.509 78.210,274.509 79.200 M191.400 233.806 C 191.180 233.895,188.667 234.147,185.815 234.367 C 181.323 234.713,180.334 234.921,178.415 235.924 C 177.197 236.561,174.823 237.386,173.141 237.759 C 171.205 238.188,169.663 238.797,168.941 239.418 C 168.313 239.958,166.963 240.679,165.940 241.019 C 163.577 241.805,161.785 243.111,158.373 246.535 C 156.874 248.039,154.872 249.763,153.924 250.367 C 151.592 251.852,144.906 258.643,143.960 260.487 C 143.541 261.304,142.852 262.158,142.431 262.384 C 142.009 262.609,141.464 263.399,141.220 264.138 C 140.976 264.877,140.334 265.898,139.792 266.407 C 139.251 266.916,138.433 268.337,137.974 269.566 C 137.515 270.795,136.906 272.070,136.621 272.400 C 135.710 273.455,135.111 274.879,134.530 277.369 C 134.218 278.704,133.683 280.225,133.339 280.749 C 132.038 282.735,131.715 285.581,130.926 302.000 C 130.520 310.445,133.002 318.390,137.318 322.463 C 138.331 323.418,139.663 324.701,140.280 325.313 C 140.896 325.925,141.724 326.735,142.120 327.113 C 142.516 327.491,143.332 328.272,143.933 328.849 C 144.534 329.426,145.931 330.357,147.038 330.918 C 148.145 331.479,149.285 332.220,149.572 332.566 C 149.858 332.911,151.342 333.566,152.868 334.020 C 154.394 334.475,155.736 335.090,155.850 335.386 C 155.964 335.683,156.978 336.322,158.103 336.806 C 159.229 337.290,160.611 338.026,161.175 338.441 C 161.739 338.856,163.280 339.388,164.600 339.624 C 168.179 340.265,170.228 341.378,171.071 343.142 L 171.783 344.632 172.657 343.616 C 173.608 342.511,181.085 342.249,184.418 343.205 C 186.229 343.725,214.057 343.706,216.320 343.184 C 219.989 342.338,226.808 342.523,227.591 343.490 L 228.294 344.357 229.247 342.884 C 230.403 341.098,231.518 340.528,235.246 339.818 C 236.818 339.518,238.588 338.916,239.178 338.480 C 239.768 338.043,241.184 337.285,242.325 336.794 C 243.466 336.303,244.400 335.748,244.400 335.561 C 244.400 335.093,246.321 334.167,247.923 333.862 C 248.651 333.724,250.255 332.888,251.488 332.005 C 252.721 331.122,253.917 330.400,254.145 330.400 C 254.373 330.400,255.175 329.815,255.928 329.100 C 256.681 328.385,258.144 326.990,259.180 326.000 C 260.216 325.010,261.849 323.490,262.810 322.622 C 265.266 320.402,267.809 315.274,268.644 310.856 C 269.892 304.254,268.827 284.663,267.031 281.200 C 266.518 280.210,265.885 278.374,265.625 277.120 C 265.365 275.866,264.700 274.175,264.149 273.362 C 263.597 272.549,262.793 270.942,262.362 269.790 C 261.931 268.638,261.043 267.136,260.389 266.452 C 259.735 265.767,259.200 264.977,259.200 264.696 C 259.200 263.354,249.261 251.998,246.758 250.481 C 245.965 250.000,244.287 248.456,243.030 247.050 C 240.561 244.290,237.388 241.900,235.182 241.139 C 234.422 240.877,232.962 240.089,231.937 239.388 C 230.706 238.545,229.350 238.018,227.937 237.833 C 226.762 237.679,224.900 237.052,223.800 236.438 C 221.335 235.064,220.394 234.819,215.600 234.305 C 211.828 233.901,192.167 233.495,191.400 233.806 " stroke="none" fill="#fa9e0c" fill-rule="evenodd"></path><path id="path3" d="M126.739 65.979 C 126.815 67.091,126.709 68.000,126.503 68.000 C 125.749 68.000,125.168 70.195,124.575 75.291 C 124.240 78.159,123.704 81.133,123.383 81.901 C 122.529 83.947,122.555 94.854,123.418 96.171 C 123.807 96.764,124.171 98.782,124.401 101.618 C 124.721 105.547,124.891 106.255,125.735 107.161 C 126.273 107.739,126.923 109.177,127.199 110.400 C 127.504 111.753,128.126 113.062,128.812 113.800 C 129.426 114.460,130.212 115.968,130.558 117.151 C 130.904 118.335,131.362 119.513,131.575 119.770 C 131.830 120.078,131.747 120.845,131.331 122.018 C 129.770 126.426,130.523 147.348,132.314 149.325 C 132.757 149.814,133.158 151.355,133.447 153.675 C 133.771 156.274,134.132 157.562,134.753 158.334 C 135.854 159.701,136.269 160.591,136.815 162.749 C 137.064 163.735,137.751 164.955,138.391 165.549 C 139.014 166.127,139.803 167.278,140.144 168.106 C 140.485 168.934,141.046 169.719,141.391 169.852 C 141.735 169.984,142.382 170.940,142.828 171.976 C 143.274 173.012,144.249 174.436,144.995 175.140 C 145.742 175.844,146.459 176.756,146.590 177.167 C 146.720 177.578,147.354 178.132,147.999 178.400 C 148.644 178.667,149.532 179.496,149.972 180.243 C 150.413 180.989,150.965 181.600,151.200 181.600 C 151.435 181.600,153.146 183.031,155.003 184.780 C 157.458 187.092,158.768 188.033,159.804 188.227 C 160.806 188.415,161.399 188.824,161.803 189.606 C 162.196 190.365,162.977 190.921,164.271 191.362 C 165.312 191.717,166.637 192.461,167.216 193.016 C 167.940 193.709,169.070 194.168,170.835 194.485 C 172.618 194.806,173.801 195.290,174.714 196.073 C 175.437 196.693,176.067 197.206,176.114 197.214 C 176.161 197.222,177.962 197.386,180.115 197.578 C 182.485 197.790,184.414 198.179,185.001 198.564 C 186.432 199.502,213.535 199.523,214.963 198.588 C 215.521 198.222,217.538 197.833,219.966 197.622 C 223.864 197.283,224.619 197.024,225.995 195.552 C 226.329 195.195,227.906 194.685,229.517 194.413 C 231.773 194.033,232.566 193.718,233.022 193.022 C 233.346 192.528,234.374 191.898,235.306 191.622 C 237.163 191.073,238.400 190.166,238.400 189.353 C 238.400 189.066,239.128 188.635,240.018 188.395 C 241.496 187.997,243.866 186.159,247.331 182.722 C 247.953 182.105,248.700 181.600,248.991 181.600 C 249.283 181.600,249.894 180.967,250.351 180.194 C 250.807 179.420,251.626 178.618,252.171 178.411 C 252.716 178.204,253.444 177.488,253.789 176.821 C 254.134 176.154,254.844 175.327,255.367 174.985 C 255.890 174.642,256.741 173.382,257.259 172.184 C 257.777 170.987,258.488 169.912,258.839 169.796 C 259.493 169.580,260.400 167.978,260.400 167.041 C 260.400 166.753,260.930 165.964,261.577 165.287 C 262.225 164.609,262.951 163.278,263.191 162.328 C 263.730 160.194,264.149 159.298,265.240 157.943 C 266.195 156.758,266.755 154.384,266.785 151.400 C 266.796 150.300,267.076 148.880,267.407 148.245 C 270.049 143.180,270.157 126.159,267.568 122.869 C 266.453 121.451,266.599 119.929,267.991 118.472 C 268.646 117.787,269.385 116.418,269.634 115.431 C 269.911 114.329,270.449 113.398,271.026 113.019 C 271.948 112.416,272.534 110.898,273.002 107.898 C 273.131 107.073,273.571 106.083,273.980 105.698 C 275.102 104.643,275.573 102.278,275.946 95.822 C 276.143 92.404,276.476 89.764,276.742 89.498 C 277.401 88.839,277.324 83.179,276.637 81.761 C 276.328 81.123,275.950 79.250,275.798 77.600 C 275.449 73.816,274.713 70.566,273.812 68.823 C 273.325 67.881,273.172 66.925,273.311 65.689 L 273.512 63.910 272.670 64.752 C 271.347 66.076,271.604 69.677,273.282 73.316 L 274.600 76.175 274.600 86.387 L 274.600 96.600 273.119 101.200 C 272.305 103.730,271.533 106.470,271.403 107.288 C 271.274 108.107,270.723 109.305,270.179 109.952 C 269.635 110.598,268.915 111.908,268.579 112.864 C 268.242 113.819,267.520 115.246,266.974 116.035 C 264.967 118.936,264.948 123.063,266.903 131.507 C 267.724 135.053,267.732 135.305,267.100 137.307 C 266.737 138.458,266.337 140.480,266.211 141.800 C 265.247 151.922,264.904 153.722,263.580 155.612 C 263.190 156.169,262.603 157.652,262.275 158.908 C 261.947 160.164,261.212 161.746,260.643 162.422 C 260.073 163.099,259.319 164.643,258.967 165.853 C 258.616 167.063,258.079 168.148,257.774 168.265 C 257.470 168.382,256.678 169.360,256.014 170.439 C 255.350 171.517,254.671 172.400,254.504 172.401 C 254.337 172.401,253.611 173.266,252.891 174.322 C 251.675 176.106,248.260 179.403,246.181 180.800 C 245.690 181.130,244.356 182.348,243.216 183.506 C 242.076 184.665,240.391 185.989,239.472 186.449 C 238.552 186.910,237.260 187.780,236.600 188.384 C 235.940 188.988,234.602 189.790,233.627 190.167 C 232.651 190.544,231.351 191.275,230.737 191.792 C 230.105 192.324,228.423 193.004,226.859 193.359 C 225.341 193.705,223.221 194.430,222.149 194.972 C 216.964 197.592,182.853 197.622,178.200 195.010 C 177.320 194.516,175.250 193.794,173.600 193.404 C 171.950 193.015,170.238 192.369,169.796 191.968 C 169.354 191.568,167.920 190.767,166.611 190.188 C 165.301 189.609,163.977 188.774,163.668 188.333 C 163.359 187.892,162.344 187.205,161.411 186.805 C 160.479 186.405,158.687 185.074,157.430 183.846 C 156.173 182.619,154.572 181.219,153.872 180.735 C 151.791 179.297,148.671 176.331,147.600 174.773 C 146.638 173.374,145.629 172.095,142.956 168.891 C 142.272 168.071,141.494 166.728,141.227 165.906 C 140.960 165.084,140.567 164.304,140.355 164.172 C 139.528 163.661,138.086 160.894,137.817 159.301 C 137.662 158.380,137.009 156.966,136.367 156.159 C 135.725 155.351,135.197 154.490,135.193 154.245 C 135.163 152.451,133.928 145.519,133.423 144.313 C 132.442 141.971,132.561 129.359,133.609 124.620 C 134.592 120.172,134.593 119.553,133.617 118.313 C 133.187 117.766,132.454 116.347,131.987 115.159 C 131.521 113.972,130.781 112.615,130.342 112.144 C 129.903 111.674,129.195 110.144,128.768 108.744 C 128.341 107.345,127.553 105.300,127.017 104.200 C 124.471 98.979,124.442 77.373,126.975 72.609 C 128.254 70.203,128.421 66.209,127.300 64.824 C 126.614 63.977,126.603 64.000,126.739 65.979 M293.463 71.470 C 292.995 71.938,293.182 72.302,294.000 72.516 C 294.440 72.631,294.800 72.584,294.800 72.412 C 294.800 71.916,293.754 71.179,293.463 71.470 M18.800 159.200 C 18.800 159.446,18.575 159.520,18.300 159.365 C 17.900 159.139,17.900 159.190,18.300 159.621 C 18.660 160.009,18.922 160.038,19.235 159.725 C 19.548 159.412,19.548 159.215,19.235 159.022 C 18.996 158.874,18.800 158.954,18.800 159.200 M188.800 231.480 C 188.470 231.600,187.660 231.942,187.000 232.242 C 186.340 232.542,183.640 233.153,181.000 233.599 C 178.097 234.090,175.805 234.699,175.200 235.140 C 174.650 235.541,172.858 236.197,171.219 236.598 C 169.452 237.029,167.883 237.681,167.366 238.197 C 166.887 238.676,165.468 239.486,164.212 239.995 C 162.956 240.505,161.832 241.171,161.715 241.476 C 161.599 241.781,160.894 242.284,160.149 242.596 C 159.390 242.913,158.628 243.601,158.415 244.161 C 158.205 244.712,157.532 245.423,156.917 245.743 C 156.303 246.062,155.353 246.802,154.807 247.387 C 154.261 247.972,153.181 248.838,152.407 249.313 C 150.561 250.445,144.378 256.705,142.729 259.110 C 142.016 260.149,141.111 261.349,140.717 261.775 C 140.322 262.202,140.000 262.786,140.000 263.074 C 140.000 263.363,139.395 264.239,138.656 265.023 C 137.917 265.806,137.072 267.177,136.778 268.067 C 136.484 268.958,135.765 270.289,135.180 271.025 C 134.539 271.832,133.912 273.362,133.600 274.881 C 133.316 276.267,132.822 277.703,132.503 278.074 C 131.602 279.121,130.837 281.621,130.813 283.600 C 130.801 284.590,130.525 286.390,130.200 287.600 C 129.875 288.810,129.607 290.932,129.605 292.316 C 129.601 294.071,129.347 295.327,128.764 296.471 C 127.491 298.967,127.741 308.915,129.124 310.784 C 129.633 311.471,130.286 313.167,130.576 314.552 C 131.171 317.398,131.717 318.606,132.551 318.926 C 132.867 319.047,133.251 319.721,133.405 320.425 C 133.718 321.848,137.589 326.000,138.604 326.000 C 138.946 326.000,139.338 326.315,139.476 326.700 C 139.841 327.718,143.862 331.600,144.552 331.600 C 144.875 331.600,145.674 332.051,146.329 332.601 C 147.669 333.729,150.656 335.178,151.669 335.191 C 152.037 335.196,152.876 335.652,153.533 336.205 C 154.190 336.758,155.480 337.475,156.400 337.800 C 157.320 338.125,158.602 338.835,159.248 339.379 C 159.895 339.923,161.093 340.471,161.912 340.598 C 166.268 341.269,168.800 342.929,168.800 345.112 C 168.800 345.439,164.398 350.073,159.019 355.410 C 153.144 361.238,149.134 365.524,148.979 366.142 C 148.837 366.708,148.388 367.277,147.981 367.406 C 147.546 367.544,146.905 368.543,146.420 369.838 C 145.968 371.046,145.241 372.522,144.804 373.117 C 142.710 375.970,142.678 388.016,144.756 390.826 C 145.207 391.436,145.862 393.195,146.213 394.736 C 146.627 396.557,147.210 397.926,147.881 398.649 C 148.448 399.261,149.201 400.400,149.556 401.181 C 150.273 402.761,153.602 406.400,154.330 406.400 C 154.587 406.400,155.521 407.054,156.406 407.853 C 159.493 410.642,169.338 411.664,179.035 410.202 C 181.216 409.874,183.211 409.604,183.469 409.602 C 183.727 409.601,184.480 409.145,185.141 408.588 C 185.803 408.032,187.371 407.223,188.628 406.791 C 189.884 406.358,191.291 405.651,191.756 405.219 C 192.220 404.787,193.410 403.718,194.400 402.845 C 195.390 401.971,196.799 400.704,197.531 400.028 C 199.288 398.407,200.859 398.398,202.462 400.000 C 203.122 400.660,203.889 401.200,204.167 401.200 C 204.444 401.200,204.873 401.641,205.118 402.181 C 205.364 402.720,206.158 403.465,206.883 403.835 C 207.607 404.205,208.349 404.762,208.530 405.073 C 208.712 405.383,209.792 406.049,210.930 406.554 C 212.069 407.058,213.263 407.789,213.584 408.177 C 216.470 411.671,238.613 411.698,242.785 408.212 C 243.629 407.507,244.878 406.699,245.560 406.417 C 246.242 406.134,246.800 405.755,246.800 405.575 C 246.800 405.395,247.600 404.435,248.578 403.444 C 249.666 402.340,250.552 400.972,250.862 399.920 C 251.140 398.974,251.853 397.739,252.445 397.175 C 253.287 396.376,253.582 395.628,253.791 393.775 C 253.938 392.469,254.540 390.050,255.129 388.400 C 256.615 384.237,256.693 377.794,255.285 375.529 C 254.782 374.719,254.178 372.964,253.942 371.628 C 253.621 369.804,253.248 368.975,252.447 368.300 C 251.859 367.805,251.130 366.770,250.826 366.000 C 250.475 365.113,246.761 361.061,240.688 354.941 L 231.103 345.282 232.021 343.649 C 232.996 341.914,233.605 341.607,237.682 340.802 C 239.159 340.510,240.287 340.009,240.882 339.382 C 241.387 338.850,242.011 338.411,242.269 338.407 C 242.527 338.403,244.147 337.689,245.869 336.820 C 247.591 335.952,249.755 335.047,250.679 334.811 C 251.602 334.574,252.702 333.943,253.123 333.407 C 253.544 332.872,254.409 332.214,255.044 331.946 C 256.126 331.489,257.175 330.630,259.600 328.214 C 261.643 326.180,262.084 325.750,264.416 323.532 C 265.727 322.285,266.800 320.944,266.800 320.554 C 266.800 320.163,267.271 319.352,267.847 318.751 C 268.499 318.070,269.104 316.747,269.452 315.240 C 269.760 313.910,270.459 311.980,271.006 310.951 C 272.145 308.807,272.504 298.847,271.525 296.526 C 271.083 295.479,270.873 294.158,269.642 284.668 C 269.213 281.356,268.798 280.036,267.420 277.600 C 267.109 277.050,266.644 275.538,266.385 274.240 C 266.096 272.784,265.564 271.527,264.997 270.961 C 264.492 270.455,263.777 269.135,263.409 268.026 C 263.040 266.917,262.301 265.666,261.766 265.244 C 261.230 264.823,260.527 263.843,260.202 263.067 C 259.878 262.290,259.422 261.537,259.190 261.394 C 258.958 261.250,258.307 260.404,257.745 259.513 C 256.237 257.123,250.626 251.283,247.069 248.400 C 246.119 247.630,244.893 246.429,244.345 245.730 C 242.588 243.494,238.898 240.792,236.537 240.012 C 235.289 239.601,234.110 238.982,233.917 238.637 C 233.396 237.707,232.372 237.267,229.138 236.587 C 227.486 236.239,225.857 235.630,225.377 235.179 C 224.768 234.606,223.140 234.148,219.565 233.543 C 216.834 233.081,213.868 232.364,212.974 231.951 C 211.376 231.213,190.655 230.809,188.800 231.480 M215.600 234.305 C 220.394 234.819,221.335 235.064,223.800 236.438 C 224.900 237.052,226.762 237.679,227.937 237.833 C 229.350 238.018,230.706 238.545,231.937 239.388 C 232.962 240.089,234.422 240.877,235.182 241.139 C 237.388 241.900,240.561 244.290,243.030 247.050 C 244.287 248.456,245.965 250.000,246.758 250.481 C 249.261 251.998,259.200 263.354,259.200 264.696 C 259.200 264.977,259.735 265.767,260.389 266.452 C 261.043 267.136,261.931 268.638,262.362 269.790 C 262.793 270.942,263.597 272.549,264.149 273.362 C 264.700 274.175,265.365 275.866,265.625 277.120 C 265.885 278.374,266.518 280.210,267.031 281.200 C 268.827 284.663,269.892 304.254,268.644 310.856 C 267.809 315.274,265.266 320.402,262.810 322.622 C 261.849 323.490,260.216 325.010,259.180 326.000 C 258.144 326.990,256.681 328.385,255.928 329.100 C 255.175 329.815,254.373 330.400,254.145 330.400 C 253.917 330.400,252.721 331.122,251.488 332.005 C 250.255 332.888,248.651 333.724,247.923 333.862 C 246.321 334.167,244.400 335.093,244.400 335.561 C 244.400 335.748,243.502 336.288,242.404 336.760 C 241.306 337.233,239.751 338.065,238.948 338.609 C 238.145 339.154,237.101 339.600,236.628 339.600 C 234.458 339.600,230.967 340.849,229.908 342.003 C 227.541 344.585,227.976 345.327,236.772 353.726 C 237.966 354.867,240.036 356.956,241.372 358.369 C 242.707 359.782,245.001 362.091,246.469 363.500 C 247.960 364.931,249.411 366.745,249.757 367.610 C 250.098 368.463,250.724 369.345,251.147 369.572 C 251.958 370.006,252.412 371.578,253.233 376.796 C 254.121 382.440,252.628 395.120,251.002 395.744 C 250.694 395.862,250.247 396.684,250.008 397.570 C 249.769 398.456,248.861 400.005,247.990 401.012 C 247.118 402.019,246.218 403.193,245.988 403.622 C 245.759 404.050,244.723 404.832,243.686 405.359 C 242.649 405.886,241.308 406.774,240.707 407.333 C 238.380 409.497,216.000 409.367,216.000 407.189 C 216.000 407.034,214.785 406.338,213.300 405.643 C 209.443 403.836,208.247 402.924,203.584 398.229 C 200.670 395.295,199.274 395.507,195.213 399.500 C 191.024 403.619,189.997 404.356,186.859 405.492 C 185.396 406.022,183.840 406.786,183.400 407.189 C 181.973 408.499,179.650 408.795,170.797 408.798 C 161.608 408.800,160.046 408.577,158.430 407.029 C 157.864 406.486,156.743 405.768,155.940 405.432 C 155.117 405.089,154.109 404.224,153.631 403.451 C 153.165 402.697,152.511 401.975,152.177 401.846 C 151.843 401.718,151.145 400.696,150.625 399.576 C 150.106 398.455,149.303 397.135,148.841 396.643 C 148.353 396.125,147.818 394.751,147.567 393.374 C 147.329 392.068,146.699 389.315,146.167 387.256 C 144.979 382.655,144.915 379.035,145.977 376.474 C 146.405 375.443,147.063 373.461,147.439 372.069 C 147.906 370.341,148.420 369.343,149.061 368.923 C 149.578 368.585,150.000 368.036,150.000 367.704 C 150.000 367.371,154.051 363.059,159.003 358.122 C 163.955 353.185,168.899 348.202,169.990 347.048 L 171.974 344.950 171.155 343.295 C 170.196 341.357,168.277 340.282,164.600 339.624 C 163.280 339.388,161.739 338.856,161.175 338.441 C 160.611 338.026,159.229 337.290,158.103 336.806 C 156.978 336.322,155.964 335.683,155.850 335.386 C 155.736 335.090,154.394 334.475,152.868 334.020 C 151.342 333.566,149.858 332.911,149.572 332.566 C 149.285 332.220,148.145 331.479,147.038 330.918 C 145.931 330.357,144.534 329.426,143.933 328.849 C 143.332 328.272,142.516 327.491,142.120 327.113 C 141.724 326.735,140.896 325.925,140.280 325.313 C 139.663 324.701,138.331 323.418,137.318 322.463 C 133.002 318.390,130.520 310.445,130.926 302.000 C 131.715 285.581,132.038 282.735,133.339 280.749 C 133.683 280.225,134.218 278.704,134.530 277.369 C 135.111 274.879,135.710 273.455,136.621 272.400 C 136.906 272.070,137.515 270.795,137.974 269.566 C 138.433 268.337,139.251 266.916,139.792 266.407 C 140.334 265.898,140.976 264.877,141.220 264.138 C 141.464 263.399,142.009 262.609,142.431 262.384 C 142.852 262.158,143.541 261.304,143.960 260.487 C 144.906 258.643,151.592 251.852,153.924 250.367 C 154.872 249.763,156.874 248.039,158.373 246.535 C 161.785 243.111,163.577 241.805,165.940 241.019 C 166.963 240.679,168.313 239.958,168.941 239.418 C 169.663 238.797,171.205 238.188,173.141 237.759 C 174.823 237.386,177.197 236.561,178.415 235.924 C 180.334 234.921,181.323 234.713,185.815 234.367 C 188.667 234.147,191.180 233.895,191.400 233.806 C 192.167 233.495,211.828 233.901,215.600 234.305 M84.102 234.776 C 83.389 234.953,82.574 235.290,82.292 235.524 C 82.009 235.758,80.480 236.245,78.894 236.606 C 76.667 237.112,75.803 237.518,75.105 238.385 C 74.607 239.003,73.628 239.797,72.928 240.150 C 72.229 240.502,71.551 241.124,71.422 241.532 C 71.292 241.939,70.723 242.520,70.157 242.823 C 69.591 243.126,68.803 244.010,68.406 244.787 C 68.010 245.564,67.314 246.536,66.860 246.946 C 66.406 247.357,65.638 248.887,65.153 250.346 C 64.668 251.806,63.895 253.510,63.436 254.134 C 62.195 255.816,62.159 268.775,63.390 270.618 C 63.824 271.268,64.556 272.700,65.016 273.800 C 65.831 275.750,68.397 279.578,69.600 280.639 C 71.213 282.061,75.770 285.200,76.221 285.200 C 76.503 285.200,77.074 285.667,77.490 286.239 C 79.749 289.339,98.693 289.769,102.400 286.803 C 102.950 286.363,104.120 285.616,105.000 285.143 C 105.880 284.669,107.050 283.855,107.600 283.334 C 108.150 282.813,109.630 281.469,110.888 280.347 C 112.146 279.225,113.293 277.923,113.437 277.454 C 113.581 276.984,114.284 276.056,114.999 275.392 C 116.037 274.428,116.360 273.742,116.597 271.992 C 116.761 270.786,117.234 269.132,117.648 268.316 C 118.250 267.129,118.400 265.946,118.400 262.400 C 118.400 258.854,118.250 257.671,117.648 256.484 C 117.234 255.668,116.767 254.057,116.611 252.904 C 116.449 251.714,115.917 250.245,115.379 249.504 C 114.858 248.787,114.044 247.480,113.570 246.600 C 111.499 242.759,105.532 237.526,102.400 236.805 C 101.190 236.527,99.390 235.917,98.400 235.450 C 96.452 234.531,86.900 234.081,84.102 234.776 M304.000 234.672 C 303.670 234.787,302.320 235.291,301.000 235.794 C 299.680 236.296,297.921 236.827,297.092 236.973 C 295.458 237.262,293.962 238.423,290.218 242.312 C 285.783 246.919,284.534 248.570,283.798 250.800 C 283.399 252.010,282.696 253.510,282.236 254.134 C 280.964 255.861,280.984 265.432,282.266 267.800 C 282.742 268.680,283.328 270.480,283.569 271.800 C 283.918 273.717,284.287 274.467,285.403 275.525 C 286.171 276.254,286.800 277.075,286.800 277.349 C 286.800 278.284,294.336 285.200,295.355 285.200 C 295.645 285.200,296.365 285.647,296.954 286.192 C 300.678 289.644,319.551 289.659,322.788 286.213 C 323.311 285.656,323.933 285.196,324.170 285.191 C 324.406 285.186,325.050 284.819,325.600 284.375 C 326.150 283.931,327.636 282.847,328.901 281.968 C 330.582 280.800,331.486 279.807,332.255 278.284 C 332.834 277.138,333.633 275.784,334.031 275.276 C 334.428 274.767,334.959 273.361,335.210 272.151 C 335.461 270.940,336.091 269.016,336.610 267.875 C 338.431 263.870,338.314 255.924,336.399 253.489 C 335.984 252.962,335.437 251.708,335.185 250.704 C 334.527 248.094,328.336 240.039,326.964 240.009 C 326.725 240.004,325.958 239.373,325.261 238.607 C 324.563 237.840,323.499 237.105,322.896 236.973 C 321.261 236.613,318.407 235.741,316.600 235.048 C 315.032 234.447,305.468 234.161,304.000 234.672 M99.636 237.230 C 101.634 237.699,103.742 238.477,104.485 239.021 C 105.208 239.549,106.365 240.280,107.056 240.644 C 107.747 241.008,108.693 241.984,109.158 242.811 C 109.623 243.639,110.266 244.416,110.586 244.539 C 110.906 244.662,111.644 245.716,112.227 246.881 C 112.809 248.047,113.725 249.469,114.262 250.042 C 117.654 253.662,117.476 271.684,114.018 274.843 C 113.348 275.454,112.800 276.137,112.800 276.360 C 112.800 277.324,106.273 283.209,103.850 284.429 C 103.162 284.775,101.918 285.528,101.084 286.103 C 99.105 287.465,96.851 287.720,88.540 287.522 C 81.400 287.351,80.706 287.192,77.600 285.010 C 72.740 281.596,69.947 279.377,69.349 278.456 C 68.971 277.875,68.129 276.760,67.477 275.979 C 62.263 269.730,62.602 255.368,68.157 247.200 C 69.919 244.608,73.248 240.800,73.751 240.800 C 73.944 240.800,74.783 240.186,75.613 239.436 C 76.804 238.360,77.785 237.931,80.261 237.404 C 81.988 237.036,83.580 236.674,83.800 236.599 C 85.441 236.040,96.433 236.478,99.636 237.230 M318.066 236.958 C 321.956 237.772,323.674 238.408,324.800 239.451 C 328.446 242.830,331.098 245.580,331.700 246.607 C 332.086 247.263,332.777 248.384,333.236 249.098 C 333.696 249.812,334.310 251.252,334.601 252.298 C 334.893 253.344,335.526 255.280,336.008 256.600 C 337.032 259.404,336.902 262.415,335.595 266.215 C 335.159 267.480,334.602 269.670,334.357 271.081 C 334.086 272.636,333.555 274.070,333.009 274.723 C 332.513 275.315,331.642 276.723,331.072 277.850 C 330.503 278.978,329.795 279.993,329.499 280.107 C 329.203 280.220,327.762 281.233,326.295 282.356 C 324.829 283.480,323.487 284.400,323.315 284.401 C 323.142 284.401,322.392 284.922,321.648 285.557 C 319.620 287.291,316.899 287.703,308.557 287.540 L 301.377 287.400 298.565 285.700 C 297.018 284.765,295.571 284.000,295.350 284.000 C 294.913 284.000,288.696 277.985,286.335 275.279 C 285.361 274.162,284.780 273.030,284.602 271.900 C 284.455 270.965,283.899 268.580,283.367 266.600 C 282.160 262.105,282.113 258.556,283.221 255.594 C 283.672 254.387,284.322 252.596,284.666 251.613 C 285.010 250.630,286.395 248.497,287.745 246.873 C 289.095 245.249,290.584 243.390,291.053 242.741 C 291.522 242.092,292.692 241.035,293.653 240.392 C 294.614 239.749,295.760 238.956,296.200 238.630 C 298.795 236.706,312.027 235.694,318.066 236.958 M319.362 417.538 C 319.529 417.809,319.399 418.000,319.047 418.000 C 318.717 418.000,318.336 418.180,318.200 418.400 C 317.846 418.973,318.519 418.894,319.384 418.261 C 319.960 417.840,320.007 417.651,319.599 417.399 C 319.254 417.186,319.173 417.233,319.362 417.538 " stroke="none" fill="#d4a991" fill-rule="evenodd"></path><path id="path4" d="M83.800 236.599 C 83.580 236.674,81.988 237.036,80.261 237.404 C 77.785 237.931,76.804 238.360,75.613 239.436 C 74.783 240.186,73.944 240.800,73.751 240.800 C 73.248 240.800,69.919 244.608,68.157 247.200 C 62.602 255.368,62.263 269.730,67.477 275.979 C 68.129 276.760,68.971 277.875,69.349 278.456 C 69.947 279.377,72.740 281.596,77.600 285.010 C 80.706 287.192,81.400 287.351,88.540 287.522 C 96.851 287.720,99.105 287.465,101.084 286.103 C 101.918 285.528,103.162 284.775,103.850 284.429 C 106.273 283.209,112.800 277.324,112.800 276.360 C 112.800 276.137,113.348 275.454,114.018 274.843 C 117.476 271.684,117.654 253.662,114.262 250.042 C 113.725 249.469,112.809 248.047,112.227 246.881 C 111.644 245.716,110.906 244.662,110.586 244.539 C 110.266 244.416,109.623 243.639,109.158 242.811 C 108.693 241.984,107.747 241.008,107.056 240.644 C 106.365 240.280,105.208 239.549,104.485 239.021 C 101.816 237.069,87.379 235.380,83.800 236.599 M300.400 237.254 C 298.530 237.685,296.640 238.304,296.200 238.630 C 295.760 238.956,294.614 239.749,293.653 240.392 C 292.692 241.035,291.522 242.092,291.053 242.741 C 290.584 243.390,289.095 245.249,287.745 246.873 C 286.395 248.497,285.010 250.630,284.666 251.613 C 284.322 252.596,283.672 254.387,283.221 255.594 C 282.113 258.556,282.160 262.105,283.367 266.600 C 283.899 268.580,284.455 270.965,284.602 271.900 C 284.780 273.030,285.361 274.162,286.335 275.279 C 288.696 277.985,294.913 284.000,295.350 284.000 C 295.571 284.000,297.018 284.765,298.565 285.700 L 301.377 287.400 308.557 287.540 C 316.899 287.703,319.620 287.291,321.648 285.557 C 322.392 284.922,323.142 284.401,323.315 284.401 C 323.487 284.400,324.829 283.480,326.295 282.356 C 327.762 281.233,329.203 280.220,329.499 280.107 C 329.795 279.993,330.503 278.978,331.072 277.850 C 331.642 276.723,332.513 275.315,333.009 274.723 C 333.555 274.070,334.086 272.636,334.357 271.081 C 334.602 269.670,335.159 267.480,335.595 266.215 C 336.902 262.415,337.032 259.404,336.008 256.600 C 335.526 255.280,334.893 253.344,334.601 252.298 C 334.310 251.252,333.696 249.812,333.236 249.098 C 332.777 248.384,332.086 247.263,331.700 246.607 C 331.098 245.580,328.446 242.830,324.800 239.451 C 321.705 236.583,308.489 235.393,300.400 237.254 " stroke="none" fill="#808080" fill-rule="evenodd"></path></g></svg>